PathFileType	4	(X/Y/Z)	E:\Qualisys_Data\Carbon_Farble_Plate\Data\Amateur_Runner\S1\T2\S1T2V23_c3d.trc
DataRate	CameraRate	NumFrames	NumMarkers	Units	OrigDataRate	OrigDataStartFrame	OrigNumFrames
200.000000	200.000000	4	39	mm	200.000000	262	300
Frame#	Time	LSHO			RSHO			LICST			RICST			LASIS			LHEEL			RASIS			LTROC			RTROC			SACR			LTH1			LSK4			LTH2			LTH3			RHM5			LSK2			LTH4			RTH1			LTOE			RTH2			RTH3			RTH4			LLEP			RLEP			LSK1			LSK3			RSK1			LHM5			RSK2			LFT1			RSK3			RSK4			LLME			RLME			RTOE			RHEEL			RFT1			RFT2			LFT2			
		X1	Y1	Z1	X2	Y2	Z2	X3	Y3	Z3	X4	Y4	Z4	X5	Y5	Z5	X6	Y6	Z6	X7	Y7	Z7	X8	Y8	Z8	X9	Y9	Z9	X10	Y10	Z10	X11	Y11	Z11	X12	Y12	Z12	X13	Y13	Z13	X14	Y14	Z14	X15	Y15	Z15	X16	Y16	Z16	X17	Y17	Z17	X18	Y18	Z18	X19	Y19	Z19	X20	Y20	Z20	X21	Y21	Z21	X22	Y22	Z22	X23	Y23	Z23	X24	Y24	Z24	X25	Y25	Z25	X26	Y26	Z26	X27	Y27	Z27	X28	Y28	Z28	X29	Y29	Z29	X30	Y30	Z30	X31	Y31	Z31	X32	Y32	Z32	X33	Y33	Z33	X34	Y34	Z34	X35	Y35	Z35	X36	Y36	Z36	X37	Y37	Z37	X38	Y38	Z38	X39	Y39	Z39	

263	1.31	2222.44580078125	1490.86279296875	-554.3807373046875	2160.611572265625	1507.536987304688	-232.4508514404297	2160.044189453125	1027.925903320312	-521.4988403320312	2155.490234375	1060.60498046875	-223.6835327148438	2203.454345703125	988.5772094726562	-494.8411560058594	1674.32861328125	181.7180786132812	-389.0586547851562	2195.1201171875	1014.324829101562	-231.9783172607422	2078.07861328125	917.4183349609376	-533.5917358398438	2107.338134765625	921.8191528320312	-192.3708343505859	2038.40234375	1061.46923828125	-371.7779541015625	2160.914794921875	742.6905517578125	-497.2793884277344	1789.116577148438	318.7902221679688	-432.0068664550781	2083.56396484375	756.9632568359375	-530.0	2130.864501953125	646.9039916992188	-474.915283203125	2293.923095703125	176.2596740722656	-216.2750244140625	1851.96875	389.6243896484375	-473.7306213378906	2051.720947265625	665.2432861328125	-500.8873596191406	2283.2626953125	881.897705078125	-225.5410614013672	1881.039428710938	51.43566513061523	-399.2672424316406	2230.342529296875	830.7547607421875	-191.6595458984375	2352.853515625	807.5731201171875	-227.5811309814453	2294.88623046875	754.8507080078125	-204.2112579345703	2030.525756835938	515.3588256835938	-457.8164367675781	2409.385498046875	635.5866088867188	-241.8266754150391	1915.561157226562	336.616455078125	-462.6438293457031	1844.26416015625	262.8460388183594	-452.84716796875	2333.5927734375	465.2231750488281	-227.100341796875	1809.561279296875	55.25973892211914	-468.2298278808594	2261.590576171875	504.5897827148438	-240.2402496337891	1668.613647460938	151.2014465332031	-365.0962219238281	2288.069580078125	376.3433837890625	-240.7428436279297	2219.685302734375	414.6577758789062	-263.3406372070312	1744.341064453125	190.60595703125	-444.1218566894531	2196.4267578125	277.6920471191406	-243.7213745117188	2362.765869140625	172.4121856689453	-285.8327941894531	2124.443115234375	260.5211791992188	-291.0782165527344	2128.92578125	225.3824615478516	-319.8845825195312	2117.51953125	231.6848449707031	-265.8249816894531	1660.73876953125	151.3450469970703	-417.8428955078125
264	1.315	2245.692138671875	1496.125244140625	-553.5696411132812	2179.523193359375	1510.971069335938	-231.9213409423828	2181.996337890625	1031.25048828125	-520.8816528320312	2177.0791015625	1064.706420898438	-223.5209350585938	2225.37890625	991.62060546875	-494.328125	1686.3212890625	193.1351623535156	-389.36767578125	2216.24609375	1018.702819824219	-231.5470886230469	2098.90673828125	921.5088500976562	-533.0729370117188	2128.73974609375	926.4974975585938	-192.1724395751953	2060.05224609375	1065.327270507812	-371.9379272460938	2178.415283203125	745.6633911132812	-497.3484191894531	1799.761352539062	325.5614013671875	-432.8579406738281	2101.03759765625	761.4653930664062	-529.8438110351562	2146.01025390625	650.6127319335938	-474.6564025878906	2335.121826171875	173.096435546875	-216.0949554443359	1863.2021484375	396.9422607421875	-474.5157165527344	2067.0556640625	670.6249389648438	-501.2349853515625	2305.208251953125	886.2855224609375	-226.2251434326172	1884.266235351562	50.88998031616211	-400.9072875976562	2252.433349609375	835.3372802734375	-192.1970977783203	2374.623046875	811.8678588867188	-228.7005615234375	2316.601318359375	759.4789428710938	-204.3029327392578	2043.173583984375	520.7135009765625	-458.0510559082031	2429.87158203125	638.612548828125	-241.8070373535156	1926.397705078125	342.0309448242188	-460.3804626464844	1854.980224609375	270.0651550292969	-454.3827209472656	2360.989990234375	464.1274719238281	-226.712158203125	1812.559448242188	57.35551834106445	-468.2886047363281	2288.395751953125	499.7577514648438	-240.2583618164062	1679.164428710938	163.3721618652344	-364.8630981445312	2320.081298828125	373.1792297363281	-240.5406036376953	2249.787109375	408.4165344238281	-263.1015625	1755.471923828125	197.7099151611328	-445.7812805175781	2233.2734375	270.173583984375	-243.8738098144531	2404.041259765625	173.2706146240234	-287.4798278808594	2161.669921875	249.5508880615234	-291.3393859863281	2167.950439453125	215.1730651855469	-320.3970031738281	2156.4921875	220.0534210205078	-266.3280639648438	1670.419067382812	163.5560607910156	-417.6587219238281
265	1.32	2266.327392578125	1500.942993164062	-551.958740234375	2197.6044921875	1514.843505859375	-231.1653900146484	2203.878662109375	1034.281127929688	-520.6516723632812	2197.816650390625	1068.798095703125	-223.7182006835938	2246.915771484375	994.7538452148438	-493.89453125	1699.088989257812	204.9144134521484	-389.4423217773438	2237.70654296875	1022.662719726562	-231.2348785400391	2119.3896484375	925.1482543945312	-532.6065063476562	2150.145751953125	930.7777099609376	-191.0360870361328	2081.925048828125	1069.073364257812	-371.6473693847656	2195.476806640625	748.5480346679688	-497.6011962890625	1811.488647460938	332.4895935058594	-433.2268676757812	2118.611328125	766.2999877929688	-529.5476684570312	2161.354736328125	654.6416625976562	-475.1881713867188	2376.559814453125	170.4321594238281	-217.8460998535156	1874.35693359375	403.9432067871094	-475.0137634277344	2082.85888671875	675.9453735351562	-500.65234375	2327.078125	890.2569580078125	-226.7882385253906	1887.327026367188	49.87189865112305	-402.3135070800781	2274.03076171875	839.5051879882812	-192.2407531738281	2396.187744140625	815.5608520507812	-229.3390655517578	2338.097900390625	763.21875	-205.059814453125	2055.93798828125	526.4710083007812	-458.7042541503906	2450.32666015625	641.1022338867188	-241.8172149658203	1937.919799804688	349.1210327148438	-461.9242248535156	1866.088500976562	277.138427734375	-455.9342346191406	2388.3330078125	462.3293151855469	-226.5299987792969	1815.389770507812	60.64704132080078	-468.1747131347656	2314.2978515625	494.6748657226562	-239.9381103515625	1690.96484375	176.4189300537109	-363.9459533691406	2351.591796875	369.533447265625	-241.3915100097656	2279.691162109375	402.0048522949219	-263.1737976074219	1766.939575195312	204.9176483154297	-447.004150390625	2269.14306640625	263.1109619140625	-244.3842468261719	2445.046142578125	174.2702026367188	-288.8297729492188	2199.358642578125	238.674560546875	-291.9684753417969	2207.146240234375	204.705810546875	-320.9474487304688	2195.3623046875	209.0194549560547	-266.4375610351562	1681.05126953125	176.2892150878906	-417.2873840332031
266	1.325	2287.74951171875	1505.803588867188	-549.953369140625	2216.595703125	1517.829345703125	-230.8462982177734	2225.373291015625	1037.5107421875	-520.258056640625	2219.07080078125	1072.420532226562	-223.5428161621094	2270.006591796875	997.944091796875	-494.2535095214844	1713.013549804688	217.0706787109375	-389.8206176757812	2258.95947265625	1026.37255859375	-231.3379821777344	2139.980224609375	929.2306518554688	-532.4379272460938	2171.680419921875	934.3378295898438	-190.5755920410156	2103.718505859375	1072.554931640625	-371.7042846679688	2212.384521484375	751.1056518554688	-498.7367248535156	1823.769287109375	339.1003112792969	-433.4789733886719	2136.063720703125	770.5805053710938	-529.7159423828125	2176.550537109375	656.5149536132812	-474.6492004394531	2417.76611328125	168.00439453125	-219.0870666503906	1886.676635742188	411.0603942871094	-475.1141662597656	2098.942138671875	681.6408081054688	-501.5614929199219	2348.61767578125	893.4627685546875	-227.0659332275391	1890.98388671875	49.36044692993164	-403.1393737792969	2295.240478515625	843.0618286132812	-193.2234649658203	2417.1142578125	818.3568725585938	-229.8728942871094	2358.886962890625	766.4471435546875	-205.6983489990234	2069.504150390625	532.181884765625	-460.0171813964844	2469.545166015625	643.1055297851562	-242.3311614990234	1949.83056640625	355.6806640625	-463.5341796875	1878.237670898438	284.2229309082031	-457.3909301757812	2415.209228515625	460.7922973632812	-226.3852996826172	1819.244750976562	64.2582778930664	-468.0063781738281	2340.17138671875	489.4887084960938	-239.1949005126953	1703.11962890625	189.5294647216797	-364.2603454589844	2383.328125	366.168701171875	-241.5877838134766	2309.59716796875	395.6276550292969	-262.8168334960938	1779.058349609375	212.9337463378906	-448.0925903320312	2305.829833984375	255.8187255859375	-244.0264434814453	2485.4814453125	175.8194732666016	-290.323486328125	2236.947998046875	227.9289703369141	-292.1494445800781	2246.546630859375	194.7793121337891	-321.4584350585938	2234.6298828125	198.0006713867188	-267.1146545410156	1692.754272460938	189.7719879150391	-417.1067810058594
